<?xml version="1.0" encoding="UTF-8" standalone="no"?>
<!-- Created with Inkscape (http://www.inkscape.org/) -->

<svg
   version="1.0"
   width="468pt"
   height="468pt"
   viewBox="0 0 468 468"
   id="svg2"
   inkscape:version="1.4 (86a8ad7, 2024-10-11)"
   sodipodi:docname="taster_ch4_1.svg"
   xmlns:inkscape="http://www.inkscape.org/namespaces/inkscape"
   xmlns:sodipodi="http://sodipodi.sourceforge.net/DTD/sodipodi-0.dtd"
   xmlns="http://www.w3.org/2000/svg"
   xmlns:svg="http://www.w3.org/2000/svg"
   xmlns:rdf="http://www.w3.org/1999/02/22-rdf-syntax-ns#"
   xmlns:cc="http://creativecommons.org/ns#"
   xmlns:dc="http://purl.org/dc/elements/1.1/">
  <title
     id="title1">Taster 4 Kanäle, Kanal 1 aktiv</title>
  <sodipodi:namedview
     pagecolor="#ffffff"
     bordercolor="#666666"
     borderopacity="1"
     objecttolerance="10"
     gridtolerance="10"
     guidetolerance="10"
     inkscape:pageopacity="0"
     inkscape:pageshadow="2"
     inkscape:window-width="1920"
     inkscape:window-height="1111"
     id="namedview8"
     showgrid="false"
     inkscape:zoom="1.1410407"
     inkscape:cx="233.55872"
     inkscape:cy="295.78261"
     inkscape:window-x="-9"
     inkscape:window-y="-9"
     inkscape:window-maximized="1"
     inkscape:current-layer="svg2"
     inkscape:showpageshadow="2"
     inkscape:pagecheckerboard="0"
     inkscape:deskcolor="#d1d1d1"
     inkscape:document-units="pt" />
  <defs
     id="defs12" />
  <metadata
     id="metadata4">
    <rdf:RDF>
      <cc:Work
         rdf:about="">
        <dc:format>image/svg+xml</dc:format>
        <dc:type
           rdf:resource="http://purl.org/dc/dcmitype/StillImage" />
        <dc:title>Taster 4 Kanäle, Kanal 1 aktiv</dc:title>
        <dc:date>28.02.2025</dc:date>
        <dc:creator>
          <cc:Agent>
            <dc:title>adiko01.de</dc:title>
          </cc:Agent>
        </dc:creator>
        <dc:description>Basiert auf taster_ch.svg aus fhem - Created by potrace 1.8, written by Peter Selinger 2001-2007</dc:description>
      </cc:Work>
    </rdf:RDF>
  </metadata>
  <g
     transform="matrix(0.258564,0,0,-0.258564,0,468)"
     id="g6"
     stroke="none"
     fill="#000000">
    <path
       d="M 97,1796 C 46,1777 22,1754 10,1711 4,1688 0,1385 0,897 0,55 -2,82 55,30 L 82,5 893,2 c 758,-2 814,-1 847,15 73,37 70,-6 70,888 0,775 -1,801 -20,832 -44,73 16,68 -865,70 -650,2 -797,0 -828,-11 z m 1573,-896 0,-770 -765,0 -765,0 0,770 0,770 765,0 765,0 0,-770 z"
       id="path8" />
  </g>
  <rect
     width="49.576271"
     height="49.576271"
     x="209.21341"
     y="209.12207"
     id="rect2989"
     fill="#000000" />
  <rect
     id="rect2987"
     width="360"
     height="14.872881"
     x="55"
     y="227"
     fill="#000000" />
  <rect
     id="rect2987-0"
     width="360"
     height="14.872881"
     x="54.138165"
     y="-241.43799"
     fill="#000000"
     transform="rotate(90)" />
  <rect
     style="fill:#000000;fill-opacity:1;fill-rule:evenodd;stroke:none;stroke-width:0.8px;stroke-linecap:butt;stroke-linejoin:miter;stroke-opacity:1"
     id="rect3338"
     width="134.84746"
     height="132.86441"
     x="65.053261"
     y="69.261406" />
</svg>
